<svg width="24" height="25" viewBox="0 0 24 25" fill="none" xmlns="http://www.w3.org/2000/svg">
<path d="M15 19.6276C15.8329 19.87 16.7138 20 17.625 20C19.1037 20 20.5025 19.6576 21.7464 19.0478C21.7488 18.9905 21.75 18.9329 21.75 18.875C21.75 16.5968 19.9031 14.75 17.625 14.75C16.2069 14.75 14.956 15.4655 14.2136 16.5552M15 19.6276V19.625C15 18.5121 14.7148 17.4658 14.2136 16.5552M15 19.6276C15 19.6632 14.9997 19.6988 14.9991 19.7343C13.1374 20.8552 10.9565 21.5 8.625 21.5C6.29353 21.5 4.11264 20.8552 2.25092 19.7343C2.25031 19.698 2.25 19.6615 2.25 19.625C2.25 16.1042 5.10418 13.25 8.625 13.25C11.0329 13.25 13.129 14.585 14.2136 16.5552M12 6.875C12 8.73896 10.489 10.25 8.625 10.25C6.76104 10.25 5.25 8.73896 5.25 6.875C5.25 5.01104 6.76104 3.5 8.625 3.5C10.489 3.5 12 5.01104 12 6.875ZM20.25 9.125C20.25 10.5747 19.0747 11.75 17.625 11.75C16.1753 11.75 15 10.5747 15 9.125C15 7.67525 16.1753 6.5 17.625 6.5C19.0747 6.5 20.25 7.67525 20.25 9.125Z" stroke="white" stroke-width="1.5" stroke-linecap="round" stroke-linejoin="round"/>
</svg>
