<svg id="enterprises" xmlns="http://www.w3.org/2000/svg" viewBox="0 0 16 16" height="16" width="16"><path d="M4 4h1v2H4Z" fill="#000000" stroke-width="0.5"></path><path d="M4 7h1v2H4Z" fill="#000000" stroke-width="0.5"></path><path d="M7 4h1v2h-1Z" fill="#000000" stroke-width="0.5"></path><path d="M7 7h1v2h-1Z" fill="#000000" stroke-width="0.5"></path><path d="M4 10h1v2H4Z" fill="#000000" stroke-width="0.5"></path><path d="M7 10h1v2h-1Z" fill="#000000" stroke-width="0.5"></path><path d="M15 7a1 1 0 0 0 -1 -1h-3V2a1 1 0 0 0 -1 -1H2a1 1 0 0 0 -1 1v13h14ZM2 2h8v12H2Zm9 12V7h3v7Z" fill="#000000" stroke-width="0.5"></path><path id="_Transparent_Rectangle_" d="M0 0h16v16H0Z" fill="none" stroke-width="0.5"></path></svg>